<svg version="1" xmlns="http://www.w3.org/2000/svg" width="333.333" height="333.333" viewBox="0 0 250.000000 250.000000"><path d="M3.2.7L0 1.1v37.1l3.1-.6c1.7-.3 3.8-.6 4.5-.6.8 0 1.4-.9 1.4-2 0-3.9 8.1-5.6 9.9-2.1.8 1.4 3 2.2 9.6 3.1 4.7.7 9.6.9 11 .6 1.4-.4 2.5-.2 2.5.4 0 1.3 3.7 1.3 4.2 0 .2-.5 2.5-1.3 5.2-1.6 3.9-.6 4.8-.4 4.4.7-.3.8-2 1.7-3.9 2l-3.4.6 3.8.2c2 0 3.7.5 3.7 1.1 0 .5-.4 1-1 1-.5 0-1 .8-1 1.7 0 1.4.4 1.3 2.1-.6 1.9-2 2.7-2.2 8.5-1.6 5.3.6 6.3.5 5.9-.7-.4-.9-1.7-1.3-3.8-1-4.3.5-8.7-1.3-8.7-3.6 0-1.8 8.6-6.9 9.8-5.8.3.3 1-.1 1.7-1 1-1.4 1.6-1.4 6.1-.1 2.7.9 4.4 1.6 3.8 1.6-1.4.1-3.4 4.5-3.4 7.7 0 1.6-.8 2.8-2.2 3.4l-2.3.9h2.3c1.6.1 2.2.7 2.2 2.3-.1 5.2-.1 5.2-27.3.1-16.3-3-25.7-5.2-25.7-5.9 0-1.4-12.1-1.1-16.2.5-1.4.5-3.5.7-4.7.4-1.9-.5-2.1-.1-2.1 4.6 0 5.7.2 5.8 9 4.1 2.7-.5 4.6-.5 4.8.1.2.5.8.6 1.4.3.7-.4.9.6.6 3-.2 2 0 3.6.4 3.6.5 0 .4.6-.3 1.2-.6.7-3.1 1.2-5.5 1.1-4.5-.2-5.8.9-2.6 2.3 2 .8 1.7.8 6 0l3.3-.6-.2 4.3c-.3 6.5-1.2 7.5-7.3 8.2-4.3.6-5.3 1-5.1 2.4.2.9.4 2 .4 2.5.1.5.8.3 1.6-.4.8-.6 1.9-.9 2.4-.5.6.3 1.9-.3 2.9-1.3 1.9-1.9 1.9-1.9 3.1-.1.6 1.1 1.7 1.9 2.4 1.9.8 0 .7-.4-.3-1-1.3-.8-1.2-1 .3-1 1.3 0 1.8.6 1.5 2.2-.2 1.9-1.3 2.5-6.8 3.7C5.6 81.3.7 84 4.7 84c1.1 0 2.3-.4 2.9-.9.5-.5 3.4-1.2 6.4-1.6 4.9-.6 5.6-.4 5.7 1.2 0 1 .4 3.2.8 4.9.7 3 .6 3.1-4.2 4.4-5.1 1.4-9.1 3.6-10.9 5.9-.6.8-1.6 1.1-2.2.7-.7-.4-1.2-.1-1.2.7 0 1.4 2.4 1.9 5 1 .8-.3 2.8-.7 4.3-.9 1.6-.2 3.8-1 4.9-1.8 2.9-2.1 5.1-1 3 1.4-.8 1.1-1.9 1.7-2.4 1.4-.4-.3-.8 0-.8.6s-.4.9-.9.6c-.5-.4-1.1-.1-1.3.4-.2.6-1.4 1.2-2.8 1.2-1.4.1-3.6 1-4.9 2-2.3 1.8-2.5 1.8-4.5.1-1.9-1.7-2-1.7-.7-.1.9 1.2 1 1.8.2 1.8-.6 0-1.1 1.2-1 2.7 0 1.6.3 2.2.6 1.5.4-.9.8-1 1.8-.2.9.7 1.5.8 1.9.1.4-.6 1.4-.7 2.3-.4 1 .4 1.4.2.9-.5-.3-.6-.2-1.3.4-1.7.5-.3 1-.2 1 .4 0 1 4.9-.6 6-2 .3-.3 2.2-.6 4.3-.5l3.8.1-2.8 2.4c-1.7 1.5-2.9 1.9-3.1 1.2-.3-.8-.8-.7-1.6.4-.6.8-2.5 1.6-4.3 1.8-1.7.1-2.9.5-2.6.9.2.5 0 .8-.6.8-.5 0-1.8.3-2.8.7-1.6.6-1.7.5-.3-1.3s1.4-1.8-.2-.5c-1 .7-1.5 1.7-1.3 2.2.3.4-.4 1.3-1.5 1.9-1.7.9-2 2.1-2 7 0 3.7.4 6 1.3 6.3.9.4.9.6 0 .6-1 .1-1.3 3.8-1.3 15 0 14.5.5 17.1 3.1 15.5.8-.5.7-.9-.4-1.5-1.9-1.1-1.1-5 .8-4.2.8.2 1.1 1.2.8 2-.5 1.3-.2 1.5 1.5 1.1 1.2-.4 2.2-.3 2.2 0 0 .4 2.5 2 5.5 3.6 4.2 2.2 6.2 2.7 8.8 2.2 2.5-.5 3.8-.2 4.7.9 1 1.2 1 1.5-.1 1.5s-1.1.2-.2.8c1.8 1.1 1.3 21-.5 21.7-1.9.7-.4 2.5 2.1 2.5 1.6 0 1.8.3.9.9-.8.4-1.3 1.2-1.3 1.7.1.5-1 1-2.4 1.2-1.8.2-2.5.8-2.1 1.8.3.8.1 1.4-.4 1.4-.6 0-1 .4-1 1 0 1.8 1.8 1.1 2.5-1 .3-1.1 1.1-2 1.7-2 .5 0 .8.6.5 1.4-.5 1.2 1.1 2.6 2.9 2.6 1 0 .3-3.9-.8-4.3-.8-.4-.7-.6.4-.6.9-.1 2.6 1.1 3.8 2.6 1.2 1.6 1.9 2.2 1.5 1.6-.3-.7-.2-1.3.4-1.3 1.6 0 2.2 1.8.9 2.4-.9.3-.8.8.5 1.6 1.8 1.1 1.8 1.2 0 2.6-1.6 1.2-1.6 1.3-.1 1.4.9 0 2-.4 2.3-1 1.3-2 3.5-1 3.3 1.5-.2 1.5-.9 2.5-1.8 2.5-1.7 0-6-2.7-7.2-4.4-.5-.8-1.1-.7-1.8 0-.9.9-.2 1.7 2.3 3.3 1.9 1.1 3.9 2.1 4.6 2.1.6 0 1.1.5 1.1 1.1 0 .7-.7.8-1.7.4s-2.8-1-4-1.2c-1.3-.3-2-.9-1.7-1.4.3-.5 0-.9-.6-.9-.7 0-.9.7-.6 1.6.3.9.6 1.7.6 1.9 0 .3 2.3.7 5 1.1 2.8.4 5 1 5 1.5s.5.9 1.1.9c.6 0 .8-.9.4-2s-.2-2 .4-2c.6 0 .8-.7.5-1.5-.4-.8-.1-1.5.5-1.5s1.1.4 1.1 1c0 .5.9 1 2 1 2.6 0 2.6 2 0 2.7-1.1.3-2 1.4-2 2.4 0 1.2-.7 1.9-2 1.9-2 0-2.8 2.4-1.2 3.4 1.1.7 5.9-3.9 6.7-6.4.6-1.8 1.3-2 5.1-1.6 2.7.3 5.5-.1 7-.9 2.4-1.2 2.5-1.4.7-2.5-1.6-1-1.5-1.1.7-.6 1.4.3 2.9.6 3.4.6s.1.9-.9 2c-2.4 2.7-.7 4.7 2.5 3 1.2-.6 2.4-.9 2.8-.6.3.3 0 .6-.6.6-.7 0-1.2.5-1.2 1.1 0 1.7 2.4.4 3.6-1.9 1.1-2.2 1.1-2.2 3.2-.4 1.7 1.5 1.9 2.1.9 3.2-1 1.2-.9 1.2.6.1.9-.8 1.6-2 1.5-2.9-.2-.8.5-1.6 1.4-1.7 1-.2 3.7-1.8 6-3.7 2.4-1.9 5.7-4 7.3-4.8 1.7-.8 4.1-2.1 5.4-3 1.4-.8 3.6-1.6 5-1.7 5.6-.3 9-1 10.3-2 1.9-1.5 5.8-2.3 5.8-1.1 0 .5.7.3 1.5-.5 1.1-1.1 3.3-1.4 8.7-1.2 4 .1 7.3.3 7.3.5 0 .1.8.3 1.8.5 2.1.4 3.3 1.3 2.6 1.9-.2.2-2.4.6-4.9.9-7.4.8-18.4 2.8-20.1 3.7-1.3.7-1.8.4-2.2-1.1-.6-2.3-3.4-1.6-3.9.9-.2.9-1.2 1.7-2.3 1.7-1.1 0-2.1.8-2.3 1.8-.2.9.2 1.7.8 1.7.7 0 1-.7.6-1.5-.3-.8-.1-1.5.3-1.5 1 0 2 2.3 2.7 5.7.4 2 .2 2.1-2.8 1.3-4.1-1.1-7.4-.6-7 1.1.3 1 0 1-1.3-.1-.8-.7-1.9-1-2.3-.6-.4.4.3 1.6 1.5 2.6 1.2.9 2 2 1.7 2.3-1 .9-4.4-.5-4.4-1.9 0-1.9-.6-1.8-3 .6-1.6 1.6-1.7 2-.5 2 .9 0 2.5.9 3.7 1.9l2.1 2-2.1-.2c-1.1 0-1.9-.4-1.6-.8.2-.4-1-.9-2.7-1.1-1.6-.3-3.2-.1-3.5.4-.3.4.1.8.8.8.8 0 .6.5-.4 1.1-1 .5-1.8 2-1.7 3.2 0 1.5.2 1.7.6.7.9-2.2 2.6-3.1 3.5-1.7.4.6.3 1.4-.2 1.7-.5.3-.5 1.1-.1 1.9.7 1 1.1.9 2.3-.3 1.4-1.3 1.8-1.3 3.4-.1 1.8 1.4 1.7 1.5-1.8 1.9-.7 0-1.7 1.1-2.3 2.3-.5 1.3-1.3 2.3-1.7 2.3-.4 0-.5.7-.2 1.5.4.8 1 1.2 1.5.9.5-.3.9 0 .9.6 0 1.4 3.4 2.6 8.8 3.3 6.9.8 6.3 1.9-.8 1.4-6.1-.5-6.3-.5-3.5.8 3.8 1.8 13.1 1.8 17 .1 2.5-1.2 2.7-1.5 1.3-2.1-2.2-.9-2.4-2.5-.4-2.5.8 0 1.6-.6 1.9-1.3.3-.8.7-.7 1.2.5.6 1.6.9 1.6 3.1.1 2.3-1.4 2.4-1.4 2.4.5 0 1.6.9 2.3 4.2 2.9 4 .8 6.6 3.3 3.4 3.3-.9 0-1.6.7-1.6 1.6 0 1.3.3 1.4 1.5.4.8-.6 1.8-.9 2.3-.7.4.3 1.4.2 2.2-.3 1.2-.8 1.3-1.3.3-3-1.6-2.4-1.6-3-.3-3 .6 0 1 .7 1 1.5 0 2.4 1.9 1.7 2.6-.9.3-1.4 1.3-2.7 2.2-3.1.9-.3 1.3-.3.9.1s-.2 1.3.3 1.9c.7.8.4 1.7-.9 2.9-1.6 1.4-1.8 2.3-1 4.3.9 2.5.5 4.3-1.2 4.3-.5 0-.9-.9-.9-2 0-2.6-1.5-2.5-3.4.2-.9 1.2-1.6 1.7-1.6 1 0-.6-.5-1.2-1.1-1.2-.5 0-.7.4-.4 1 .4.6-.5 1-1.9 1-1.6 0-2.6-.6-2.6-1.5 0-1.8-1.7-2-2.2-.4-.3.8-1.4.6-3.6-.5-3.4-1.8-4-1.2-1.8 1.6 1.2 1.6 3.2 1.8 16.3 1.8h15l1.1-2.5c1.9-4.2 1.4-4.8-2.2-2.6-4.1 2.5-3.8 2.5-6.6.1-2.9-2.5-2.1-5.5 1.2-4.4 1.3.4 2.7 1.3 3.3 2.1.8 1.1 1.2 1 2.2-.6 1-1.7.9-2-1.3-2.5-1.4-.4-2.9-.4-3.3-.1-.5.2-1.1-.6-1.3-2-.5-2.6 1.6-3.6 2.5-1.2.6 1.7 6.2 1.4 8.3-.4 1.3-1 1.5-2.5 1-6.6-.5-4.3-.3-5.4 1.2-6.5 2-1.4 3.9-5.4 2.1-4.2-.7.4-.9-.1-.7-1.2.2-1.1-.5-2.8-1.4-3.9-1-1-1.6-2.5-1.4-3.2.3-.8-.2-1.3-1.3-1.3-1 0-2.6-.9-3.5-1.9-1-1.1-2.7-2.1-3.8-2.3-2.2-.3-3.5-5.2-1.7-6.4 1.7-1 16.3 4.5 22.5 8.6 16.2 10.5 19.1 26.1 7.4 39.4l-3 3.4 39 .1 39 .2-.1-50.8c-.1-27.9-.5-49.3-.9-47.5-1 4.3-1.7 4.9-2.5 2.3-.7-2.2-5.2-5.1-7.9-5.1-.9 0-2.4-1.7-3.5-3.7-1-2.1-4.9-8.1-8.6-13.3-3.7-5.2-7.2-10.7-7.7-12.2-.6-1.5-1.9-2.9-3.4-3.2-2.8-.8-7.4-5.6-11.7-12.4-1.6-2.6-3.7-5.6-4.7-6.7-.9-1.1-2-3.2-2.4-4.7-.5-2.3-1.6-3-7.6-4.9l-7-2.2-4-7.5c-2.2-4.1-3.9-7.6-3.8-7.8.2-.2 17.2 2.5 37.8 6 33.6 5.6 41.5 6.4 37 3.6-.8-.5-3.4-1.1-5.9-1.5-13.7-2-71.6-11.7-72.3-12.1-.4-.3-.8-1.2-.8-1.9 0-.8-1.4-3-3.1-4.9l-3-3.5 3.8-1c4.8-1.4 6-1.4 6.5 0 .2.6 1.4.1 2.7-1 3.4-2.9 9.9-4.5 17.3-4.2 2.1.1 2.9.7 3.4 2.6.7 3 4 3.4 6 .7 1.1-1.4 1.6-1.5 3.3-.4 2 1.2 7.2.9 9.5-.6.6-.3 1.6-.7 2.1-.8.6 0 1.5-.2 2.2-.2 1.6-.3 4.3-3.1 4.3-4.7 0-.7-1.8-1.5-4.4-1.9l-4.4-.7.4-5.4c.3-3.9 0-5.6-1-6.2-.8-.4-1.6-2.6-1.8-4.7-.3-3.9-2.8-6.5-2.8-2.9 0 1.1-.4 2.3-.9 2.8-1.3 1.4-2.2 15.3-1 16 .5.4.7 1.1.3 1.6-.5.9-6.1-2.4-7.7-4.6-.5-.6-1.6 0-3 1.7-2.5 3.1-6.3 3.9-5.3 1.2.4-.9.2-2.2-.4-2.9-.5-.7-1.6-3-2.4-5.1-1.2-3.3-1.5-3.5-1.5-1.4-.2 4.1-1.5 5.2-5.7 4.8-3.9-.3-3.9-.3-3.7-4.3l.2-4-1.2 4.3c-1.6 5.6-2.6 4.6-1.7-1.6.8-5 .6-7.8-1-15.9-1.3-6-2.7-7.5-7.5-7.9-3.1-.3-3.5 0-3.5 2.1 0 1.7-.6 2.5-1.7 2.6-1.4 0-1.3.2.4.9 1.9.8 2.1 1.4 1.6 4.2-.3 1.8-.8 6.6-1 10.5l-.5 7.3h-3.3c-4.5 0-6.5-.9-6.5-2.8 0-1.2.3-1.3 1.2-.4 1.9 1.9 2.3 1.5 2.4-2.4.1-2.3-.2-3.1-.7-2.3-.7 1.1-1.1 1-2.3-.6-1.5-1.9-1.5-1.9-1.6-.1 0 1.3-.3 1.6-1.2.9-.7-.6-2.5-.9-3.9-.6-2.3.3-2.6.1-2.1-2.2.2-1.4.8-2.8 1.3-3.1.5-.3.9-1.5.8-2.7 0-2.1-.1-2.1-1.1.3l-1.1 2.5-.6-2.3c-.9-3.4-.1-14.8 1-13.1.6 1 .9.6.9-1.4 0-1.6-.4-2.6-1-2.2-.6.4-1-.5-1-2 0-1.7-.5-2.5-1.2-2.3-.8.3-1.7 4.2-2.4 10.4-.7 5.4-1.3 10.3-1.4 10.9-.2.5 0 1.8.4 2.7.4 1 .3 3-.2 4.5l-1 2.8-.1-2.5c-.1-1.4-.6-3.2-1.1-4-.8-1.2-1-1-1 1-.1 2.3-.1 2.4-1.2.6-.9-1.5-.7-2.2.8-3.3 1-.8 1.3-1.3.5-1.3-1 0-1.1-2.4-.6-11l.8-11h-5.8c-5.5 0-5.7.1-4.2 1.8 2.8 3 4.7 8.9 4.7 14.2 0 4.3-.3 4.9-1.8 4.7-1.1-.1-4.4-2.4-7.4-5s-6-4.7-6.5-4.7-2-.9-3.3-2c-1.3-1.2-2.9-1.9-3.6-1.6-.7.3-1.5 0-1.7-.7-.3-.9-1.9-.7-6.1.7C95.5 9.5 94.1 9 94 4.8 94 .3 93.3 0 82.4 0 76.7 0 72 .4 72 .9s-.7 1.2-1.6 1.5c-1.4.5-1.5.4-.4-.9S70.6 0 66.1 0C61.8 0 61 .3 61 1.8c0 1.4-.8 1.9-3.5 2-2.9.1-3.5-.2-3.5-1.8 0-1.9-.7-2-23.7-1.8C17.2.2 5 .5 3.2.7zm77 4.8c.2-.3 1.8.9 3.4 2.7 1.6 1.7 2.4 2.8 1.7 2.5-.6-.4-1.9-.4-2.9 0-1.6.6-1.6.7 0 1.8 3.6 2.7-1 5.9-6.8 4.8-1.9-.4-2.6-1.3-3.1-4.1-.3-2.1-.8-4.4-1.1-5.2-.5-1.8 5.4-4.1 7.2-2.8.6.4 1.3.6 1.6.3zm-68.3 6.7c.6 4 1.4 8.3 1.7 9.5.5 2 .2 2.3-1.9 2.3-2.3 0-2.6-.5-3.2-5.2-.4-2.9-1.3-6.9-2.1-9C5.1 6 5.5 5.3 9.1 5.1c1.3-.1 1.9 1.5 2.8 7.1zm45.4-3.5c-.3.7-.9 1.1-1.3.8-.5-.3-1.1-.1-1.5.5-.3.5-1.1 1-1.6 1s0-1.4 1.3-3c2.1-2.9 4.3-2.5 3.1.7zM68 15.5c0 .8-.2 1.5-.4 1.5s-1.1.3-1.9.6c-1.2.4-1.4 0-1-1.5.6-2.4 3.3-2.9 3.3-.6zm103.7 2.3c.2 1.3-.2 2.2-1 2.2-2 0-2.5-.9-2-3.1.7-2.5 2.5-2 3 .9zm-124.3 0c1.9.2 1.9.3.2 1.5-2.6 1.9-1.1 4.5 2.2 3.9 2.6-.4 2.6-.4.7 1.1-1.1.8-1.8 1.7-1.5 1.9.3.2 1.3.8 2.4 1.3 2.7 1.5 2.1 2.8-1.9 4.2L46 32.9V25h-4.7c-4.5 0-4.6 0-2.8-2 1-1.1 2.2-1.7 2.6-1.4.5.3.9.3.9-.1 0-.3-1.2-1-2.6-1.5-1.4-.6-2.3-1.4-2-1.9.5-.8 3-.9 10-.3zM64 22c0 .5-.2 1-.4 1-.3 0-.8-.5-1.1-1-.3-.6-.1-1 .4-1 .6 0 1.1.4 1.1 1zm107.9.9c1.7 1.1 1.7 7.7 0 9.8-.7.8-2.4 1.3-3.8 1.1-2.1-.2-2.7-.9-2.9-3.7-.5-5.3.5-8.1 3.1-8.1 1.2 0 2.8.4 3.6.9zM60.4 24.4l3.8 1.3L61 28l-3.1 2.2-2-2c-2.2-2.4-2.4-3.8-.6-4.5l1.2-.6s1.7.5 3.9 1.3zm36.9 11.8c.2.7 0 2.1-.5 3.1-1.5 2.8 0 3.8 3 2 1.5-1 3.2-2.4 3.8-3.2 1-1.2 1.7-1.2 5.1.2 3.4 1.3 11.7 3.2 18.8 4.2 1.1.1 2.7.6 3.6.9 2.3 1 6.2 8.3 6.5 12.3l.2 3.3-2.5-2c-5.2-4.1-20-1.3-18.8 3.6.5 2.3-1.9 6.4-3.8 6.4-.7 0-2.5-1.1-4.2-2.5-2.3-1.9-2.6-2.4-1.2-2.5.9 0 1.7-.6 1.7-1.4 0-1.1-1.3-1.5-5.1-1.4-5.2.1-10.1 2.5-12.3 6-1.3 2.1 0 3.6 1.6 2 .7-.7 1.6-1.2 2.2-1.2.5 0 0 .9-1.2 2-2.2 2.1-2 5 .3 5 .7 0 1.8-.7 2.5-1.5 1.1-1.3 1.4-1.3 2.6.2 1.3 1.7 1.5 1.7 2.7.1 1.1-1.3 2-1.5 4.3-.9 1.6.5 2.8 1.3 2.7 2-.2.6.2 1.1.7 1.1.6 0 1-.8 1-1.8 0-2.1 1.8-4.2 3.7-4.2.7 0 1.3.7 1.3 1.5s.8 1.9 1.9 2.4c1.6.9 1.7.7 1.3-1.4-.3-2 0-2.5 1.6-2.5 1.1 0 2.2-.6 2.5-1.3.3-.9.7-.9 2 .1 1.9 1.6 3.7.8 3.7-1.5 0-1.2.3-1.3 1.3-.5 1 .9 1.9.8 3.5-.3 1.9-1.4 2.2-1.4 3.1.2 1 1.7 1 1.7 1.1 0 0-1 .5-1.5 1.1-1.2 2 1.3-1 14.9-3.8 17.2-2.1 1.6-.8 5.6 1.6 4.8 1.5-.4 1.7-.1 1.3 2-.5 2.9-.9 3.1-3.4.8-1-.9-3.1-1.6-4.8-1.5-1.9 0-3.3-.6-4-1.8-.9-1.7-1.1-1.7-4.7.1-2 1-5.3 1.9-7.2 1.9-1.9 0-3.1.3-2.8.6.9.9-1.1 4.4-2.6 4.4-1.7 0-6.8 5.9-7.9 9.2-.5 1.5-2 3.4-3.4 4.3-1.3.8-2.4 2.3-2.4 3.3 0 .9-1.4 2.6-3 3.7-1.7 1.1-2.8 2.6-2.5 3.4.4.9 0 1.1-1.2.6-1-.4-2.7-.8-3.8-.9-1.1 0-2.8-1-3.8-2.3-1-1.3-2.6-2.3-3.4-2.3-2.2 0-5.3-2.9-5.3-4.9 0-2.1-3.4-4.2-5.5-3.5-.8.3-1.2 1-1 1.5.7 1-2 6.5-4.3 9.1-.8 1-2.6 1.8-3.9 1.8-2.7 0-2.9.7-.8 2.9.8.9 1.7 3.6 2.1 6l.7 4.4-3.9-.8c-2.1-.4-4.2-.9-4.6-1.1-.3-.2-.6-4.1-.6-8.6 0-7.9.2-8.4 4-14 2.2-3.2 3.8-6.2 3.6-6.8-.1-.5-2.1-.1-4.3 1-6.4 3-6.9 3.5-5.6 5.8.9 1.7.7 2.3-1.4 3.6-4.2 2.7-6.3 5.6-7.4 10.2-.7 2.7-1.7 4.4-2.6 4.4-.8 0-1.6-.6-1.6-1.3-.1-.6-.3-2.3-.6-3.7-.2-1.4-.4-3.7-.5-5.3-.1-1.5-.6-2.7-1.2-2.7-.7 0-.6-.3.1-.8.9-.5.9-1.9.3-4.7-.5-2.2-1-5.5-1-7.3 0-1.7-.5-3.2-1.1-3.2-.6 0-.9-.9-.6-2 .6-2.3-1.2-2.6-4.5-.9-1.6.9-2.3.8-2.9-.2-1.4-2.3-1-8.6.6-9.9 1.3-1.1 1.4-1 1 .2-.5 1.2.1 1.4 2.6 1 1.8-.3 2.6-.8 2-1.2-1.3-.8-1.5-2.5-.7-9 .4-3.3.3-3.8-.3-2-.8 2.2-.9 1.9-1-1.9l-.1-4.4-4 .7c-3.5.5-4 .4-4-1.3 0-1.9 4.2-3.7 6-2.6 1.3.8 1.2-2.6 0-4.5-.6-.9-1.3-1.1-1.7-.5-.5.5-1.6 1-2.5 1-2 0-3.7-1.5-1.7-1.5 1.2 0 1.2-.2 0-.9-1-.7-.9-1.4.9-3.4 2.6-3 5.5-2.3 6.3 1.5.3 1.3.5.1.4-2.6-.1-2.7.3-5.1.9-5.3.5-.2 9.5 1.3 19.9 3.3C58 48.5 68.1 50.4 70 50.7c4.6.7 5.8 1.8 8.5 7.9 1.2 2.8 2.8 5.4 3.4 5.8 1.6 1 4.4 7.3 3.8 8.8-.4 1.2-1 .2-2.3-4-.7-2.3-2.2-1.2-3.4 2.3-1.2 3.7-.7 5.5 1.6 5.5.8 0 1.4.5 1.4 1.1 0 .7-1 .9-2.5.6-2.1-.3-2.9.1-4.1 2.4-1.3 2.7-1.3 3 .3 3.5 1 .3 3.4 1.1 5.3 1.8 5.1 1.9 13.7 4.6 14.4 4.6 1.2 0 .6-2.8-.8-3.9-.8-.7-2.2-2.8-3.1-4.7-1.3-2.7-2-3.3-2.9-2.4-1 .8-1.7.4-3-1.4-2.2-3.5-2-3.9.9-2 1.4.9 2.5 1.2 2.6.8.5-5.2.3-6.4-.7-6-2 .8-3.8-7.5-3.5-16.4.2-11 1.4-14.5 5.9-17.5 4.2-2.8 4.9-3 5.5-1.3zm54.5 4c-.2.8 1 1.5 2.7 1.7 3 .3 3 .4-1 1.5-2.6.8-4.9.9-6.7.3-3.8-1.2-3.5-2.7.5-2.7 2.4 0 2.8-.3 1.7-1-1.2-.8-1.1-1 .8-1 1.2 0 2.1.5 2 1.2zm11 3.5c-1 .2-2.6.2-3.5 0-1-.3-.2-.5 1.7-.5s2.7.2 1.8.5zm7.5 1c-.7.2-2.1.2-3 0-1-.3-.4-.5 1.2-.5 1.7 0 2.4.2 1.8.5zm-20.8 2.1c-.3.3-1.1 0-1.8-.7-.9-1-.8-1.1.6-.5 1 .3 1.5.9 1.2 1.2zm27.3-1.1c-1 .2-2.6.2-3.5 0-1-.3-.2-.5 1.7-.5s2.7.2 1.8.5zm4.9.9c-.3.3-1.2.4-1.9.1-.8-.3-.5-.6.6-.6 1.1-.1 1.7.2 1.3.5zm-36.6 20.7c-1.8 1.8-2.3.1-.9-2.9 1.3-2.8 1.3-2.8 1.6-.5.2 1.3-.1 2.8-.7 3.4zM24 66.6c0 .8-1.9 1.3-2.4.6-.3-.5.1-.9.9-.9s1.5.2 1.5.3zm.6 9.4c2 0 .9 1.6-1.4 2.2-1.5.4-1.9 0-1.7-1.6.3-2.9.6-3.3 1.2-1.9.2.7 1.1 1.3 1.9 1.3zm107.5 20.7c-.4 2.4-1.2 3.8-2.1 3.8-.8 0-1.3-.7-1.1-1.5.2-.8.4-2.4.6-3.5.3-2.6.3-2.5 1.8-2.5 1 0 1.2 1 .8 3.7zm-102.5.2c-2.7 2.9-5.6 3.4-5.6.8 0-1.1.3-1.8.6-1.5.3.3 1.7.2 3.2-.2 1.5-.5 2.9-.9 3.1-.9.2-.1-.4.8-1.3 1.8zm86.8 6c.3.5-.1 1.4-.8 2-1.6 1.3-3.2-.2-2.1-1.9.8-1.2 2.2-1.3 2.9-.1zM6.5 127c-.3.5-1.2 1-1.8 1-.7 0-.6-.4.3-1 1.9-1.2 2.3-1.2 1.5 0zm-.8 2.6c-.3.3-1.2.4-1.9.1-.8-.3-.5-.6.6-.6 1.1-.1 1.7.2 1.3.5zm13.1 31.6c.7.7 1.2 1.6 1.2 2.2 0 .5-.6.2-1.3-.9-.9-1.1-1.9-1.5-2.7-1-.9.5-1.1.4-.6-.3.9-1.5 1.9-1.5 3.4 0zm179.2 4c0 .6-.7.5-1.5-.2s-1.5-1.7-1.5-2.2c0-.6.7-.5 1.5.2s1.5 1.7 1.5 2.2zM88 183.9c.1.9.7 3.3 1.4 5.3.8 2.1 1 3.8.6 3.8-1.8 0-11-4.4-11-5.2 0-.5 1.5-2.7 3.3-4.8 2.9-3.5 3.3-3.8 4.5-2.3.6.9 1.2 2.4 1.2 3.2zm117.4 4.4c2.1 1.5 3.6 10.2 1.6 9.5-.9-.3-5-8.9-5-10.6 0-.6 1.8-.1 3.4 1.1zm-60.9 7.7c.3.5-.1 1-.9 1-.9 0-1.6-.5-1.6-1 0-.6.4-1 .9-1 .6 0 1.3.4 1.6 1zm64.5 6.1c0 1.1-.4 1.7-1 1.4-.5-.3-1-1.3-1-2.1s.5-1.4 1-1.4c.6 0 1 .9 1 2.1zM49 207c0 .5-.4 1-1 1-.5 0-1-.5-1-1 0-.6.5-1 1-1 .6 0 1 .4 1 1zm58.3 7.1c.5.3.2.9-.5 1.2-.9.3-1.4-.3-1.5-1.5-.1-1.1.1-1.6.5-1.2.4.5 1.1 1.2 1.5 1.5zm7.4 3.9c-.2 1-1.2 1.4-3.1 1.2-1.7-.2-2.5.1-2.1.7.3.6.1 1.1-.5 1.1s-1.3-.7-1.6-1.5c-.5-1.2-1-1.3-2-.4-1.1.9-1.4.8-1.4-.5 0-.9.8-1.6 2-1.6 1.1 0 2 .4 2 .9 0 .4 1.1.6 2.4.4 1.6-.4 2.3-1 1.9-2-.3-.8-1.3-1.2-2.2-.9-1.1.4-1 .1.4-.9 1.8-1.4 2.1-1.4 3.3.2.7 1 1.1 2.4.9 3.3zm-11.5-1.8c-.7.7-1.2.8-1.2.2 0-1.4 1.2-2.6 1.9-1.9.2.3-.1 1.1-.7 1.7zm21.7 3.8c.5 0 .7.9.4 2-.3 1.1-.8 2-1.2 2-1.4 0-3.2-4.3-2.5-6.3l.7-2.2.8 2.3c.5 1.2 1.3 2.2 1.8 2.2zm1.6-1.2c-.3.3-1.1 0-1.8-.7-.9-1-.8-1.1.6-.5 1 .3 1.5.9 1.2 1.2zm-20.4 6.5c-1.8 1.8-1.4 4.7.7 4.1 1.4-.5 1.4-.3-.2 1-1.1.9-3.4 1.6-5 1.7-3 .1-3 .1-.6.9 2.3.7 2.3.8.3.9-2.9.1-3.3-.8-1.7-4.7 1.4-3.2 3.9-4.7 2.7-1.5-.4 1.1-.3 1.4.5.9.7-.4 1.2-1.4 1.2-2.2 0-.8.6-1.4 1.3-1.5.9 0 .9-.2-.1-.6-1-.4-1-.8 0-2.1 1.2-1.4 1.3-1.3 1.6.3.2.9-.1 2.2-.7 2.8zm8.5-1.6c-1 1-1.9-.5-1-1.8.6-1.1.8-1.1 1.2 0 .2.7.1 1.5-.2 1.8zm13.9-1.7c.3.5.1 1-.4 1-.6 0-1.1-.5-1.1-1 0-.6.2-1 .4-1 .3 0 .8.4 1.1 1zm-34 1c.3.5-.1 1-1 1s-1.3-.5-1-1c.3-.6.8-1 1-1 .2 0 .7.4 1 1zm16.5.7c0 .5-.5 1.5-1 2.3-.7 1.2-.9 1-.7-.8.1-1.9 1.7-3.3 1.7-1.5zm10.7 4.7c-.4.9-1.1 1.6-1.7 1.6-1.1 0-1.4-3.3-.3-4.4 1.1-1 2.6 1.1 2 2.8zM97 229.9c0 .5-.7 1.2-1.6 1.5-2.4.9-2.8.7-1.4-.9 1.4-1.7 3-2 3-.6zm16-.5c0 .2-.7.9-1.5 1.6-1.3 1.1-1.4 1-.9-.4.5-1.4 2.4-2.3 2.4-1.2zm-16 4c0 1.1-1.9 1.5-2.5.6-.3-.5.1-1 .9-1 .9 0 1.6.2 1.6.4zm31 2.7c0 .6-.4.7-1 .4-.5-.3-1-1.1-1-1.6 0-.6.5-.7 1-.4.6.3 1 1.1 1 1.6z"/><path d="M21 50.5c0 1.6 2.7 3.2 3.7 2.1.7-.7-1.6-3.6-2.8-3.6-.5 0-.9.7-.9 1.5zM46.5 52c-.9 1.5 2.1 3.7 6.5 4.9 9.3 2.4 9.1 2.4 9.4-1.1.1-.7-2.3-1.7-5.4-2.4-3-.7-6.5-1.5-7.6-1.9-1.3-.4-2.5-.2-2.9.5zM67.2 57c0 1.9.2 2.7.5 1.7.2-.9.2-2.5 0-3.5-.3-.9-.5-.1-.5 1.8zM27.1 59.6c0 1.1.3 1.4.6.6.3-.7.2-1.6-.1-1.9-.3-.4-.6.2-.5 1.3zM127.2 69.9c-1 .6-.7 1 1.2 1.3 2.1.4 2.4.3 1.5-.8-1.3-1.6-1.1-1.6-2.7-.5zM100.5 76c-.3.6.1.7.9.4 1.8-.7 2.1-1.4.7-1.4-.6 0-1.3.4-1.6 1zM69.1 81.6c0 1.1.3 1.4.6.6.3-.7.2-1.6-.1-1.9-.3-.4-.6.2-.5 1.3zM25 83c-2.1.6-2.2.8-.7 1.4 4.3 1.5 4.7 1.5 4.7-.4 0-2.1-.2-2.2-4-1zM69.1 85.6c0 1.1.3 1.4.6.6.3-.7.2-1.6-.1-1.9-.3-.4-.6.2-.5 1.3zM98 90c0 .5 1 1.4 2.1 2.1 1.7.9 2.3.8 3-.2 1.5-2.3 1-2.9-2.1-2.9-1.6 0-3 .4-3 1zM148 .9c0 .6.5 1.3 1 1.6.6.3 1-.1 1-.9 0-.9-.4-1.6-1-1.6-.5 0-1 .4-1 .9zM244 7.5c-.7.9-.8 1.5-.2 1.5.5 0 1.2-.7 1.6-1.5.3-.8.4-1.5.2-1.5s-.9.7-1.6 1.5zM148 8.6c0 .8.5 1.2 1 .9.6-.4.8-1.1.5-1.6-.9-1.4-1.5-1.1-1.5.7zM161 9.1c0 1.1.4 1.8 1 1.4.5-.3.7-1.2.3-2-.7-2.1-1.3-1.9-1.3.6zM155.1 10.6c0 1.1.3 1.4.6.6.3-.7.2-1.6-.1-1.9-.3-.4-.6.2-.5 1.3zM185 11.6c0 .4.8 1.3 1.8 2 1.4 1.1 1.5 1.6.5 3.3-1 1.5-1 2.1 0 2.4.8.3.9.8.2 1.6-.7.7-2.1.8-4.3.2-3-.9-3.2-.8-3.2 1.5 0 2.1.9 2.9 3.2 2.5.4 0 .5.6.2 1.4-.7 1.7.7 2 2.2.6.5-.5 1.9-.5 3.4.1 1.4.6 3.7 1.2 5.3 1.3 4 .4 5.7 2.3 5.4 5.9-.1 2.2.2 3.1 1.3 3.1 1 0 1.7-1.4 2.1-4.3.3-2.3.2-4.2-.2-4.2-.7 0-2-3.2-2.4-6-.1-.8-.5-2.6-1-3.9-.6-2.1-.9-2.2-1.7-.7-.5.9-.7 2.6-.4 3.9.3 1.2.3 1.6 0 .9-.3-.6-1.4-1.2-2.4-1.2-2.2 0-3.5-1.6-4.4-5.4-.4-1.7-1.5-3.6-2.4-4.3-1.9-1.4-3.2-1.7-3.2-.7zm7 10.4c0 .5-.5 1-1.1 1-.5 0-.7-.5-.4-1 .3-.6.8-1 1.1-1 .2 0 .4.4.4 1zm-2 3.1c0 .4-.7.6-1.5.3-.8-.4-1.5-1-1.5-1.5 0-.4.7-.6 1.5-.3.8.4 1.5 1 1.5 1.5zm5-.7c0 .3-.4.8-1 1.1-.5.3-1 .1-1-.4 0-.6.5-1.1 1-1.1.6 0 1 .2 1 .4zM247.2 33.2c-2.7 17.4-2.7 16.8.2 16.8h2.3l.2-15.5c0-8.5-.1-15.5-.2-15.5-.2 0-1.3 6.4-2.5 14.2zM180.5 28.1c-.4.6-.5 1.2-.2 1.5.2.3.7-.2 1-1.1.7-1.7.1-2-.8-.4zM237 39c0 .5.7 1 1.5 1s1.5-.5 1.5-1c0-.6-.7-1-1.5-1s-1.5.4-1.5 1zM220.6 40.7c-.6 1.4-.5 1.5.5.6.7-.7 1-1.5.7-1.8-.3-.3-.9.2-1.2 1.2zM243.5 52.4c-1.1.9-1.5 1.6-.9 1.6.7 0 1.1 1.6 1 3.7-.1 3.6.1 3.8 3.2 4.1l3.3.3-.3-5.3c-.2-4.4-.6-5.3-2.3-5.6-1.1-.1-2.9.4-4 1.2zM187.5 55c.3.5.8 1 1.1 1 .2 0 .4-.5.4-1 0-.6-.5-1-1.1-1-.5 0-.7.4-.4 1zM8.5 66c-.3.6-1 .8-1.5.5-.4-.3-1 .1-1.3.8-.3.9.5 1.2 3.1.9 3.8-.5 7.9-3.2 4.8-3.2-.9 0-1.6.5-1.6 1.1 0 .8-.4.8-1.4 0-1-.8-1.6-.9-2.1-.1zM13.6 68.5c-1.1.8-1.5 1.5-.9 1.5s1.6-.7 2.3-1.5c1.6-1.9 1.1-1.9-1.4 0zM0 75c0 .5.7 1 1.5 1S3 75.5 3 75c0-.6-.7-1-1.5-1S0 74.4 0 75zM225.5 90.9c2.1 2 21.8 6.7 23.6 5.6.5-.4.9-2.1.9-3.8-.1-3-.2-3.1-1.5-1.3-1.2 1.5-2.2 1.7-6.5 1.1-2.8-.4-7.4-1.3-10.3-2.1-7.4-2-8.6-1.8-6.2.5zM0 96.9c0 .5 1.2.8 2.6.8 1.8 0 2.2-.2 1.3-.8-1.8-1.1-3.9-1.1-3.9 0zM9.7 163.5c.3.8.9 1.2 1.4.9 1.2-.7 1.1-1.1-.5-1.7-1-.4-1.3-.1-.9.8zM2 164c0 .5 1.4 1 3.2 1 3.6 0 3.5-.4-.4-1.4-1.7-.4-2.8-.2-2.8.4zM24 201.7c-3.5.7-5.5 2.4-3.9 3.4 1.3.8 7.9-1.9 7.9-3.3 0-.4-.3-.7-.7-.7-.5.1-1.9.4-3.3.6zM31.2 202.2c.4 1.6 1.9 2.8 3.6 2.8 1.7 0 .6-1.7-1.9-3-1.5-.8-1.9-.8-1.7.2zM100 202c0 .5.7 1 1.6 1 .8 0 1.2-.5.9-1-.3-.6-1-1-1.6-1-.5 0-.9.4-.9 1zM25.8 205.6c-3 1.6-3.5 2.4-1.5 2.4 1.4-.1 5.2-2.8 4.6-3.4-.2-.2-1.6.2-3.1 1zM16.5 206c-.3.5-.1 1 .4 1 .6 0 1.1-.5 1.1-1 0-.6-.2-1-.4-1-.3 0-.8.4-1.1 1zM7.3 207.7c.9.2 2.3.2 3 0 .6-.3-.1-.5-1.8-.5-1.6 0-2.2.2-1.2.5zM15.9 209.7c-1.3 1.5-1.2 1.5.5.6 1.3-.7 2.8-.8 4.4-.2 2.2.8 2.3.8 1.2-.6-1.6-2-4.4-1.9-6.1.2zM22.5 212c-1.9.8-1.9.9.2.9 1.2.1 2.5-.4 2.8-.9.7-1.2-.2-1.2-3 0zM157.7 212.6c.3.7.9 1.4 1.4 1.4 1.4 0 1-1.7-.5-2.3-1-.4-1.3-.1-.9.9zM0 214c0 .5.5 1 1.1 1 .5 0 .7-.5.4-1-.3-.6-.8-1-1.1-1-.2 0-.4.4-.4 1zM7.8 214.2c-.9.5-.4.8 1.5.8 1.5 0 2.7-.4 2.7-.8 0-1.1-2.5-1.1-4.2 0zM29.6 214.5c.4.8 1.4 1.5 2.4 1.5 3.3 0 3.1 1.7-.3 2.6l-3.2.8 4.3.3c2.3.2 4.2.8 4.2 1.3s.7.7 1.6.3c1.1-.4 1.2-.8.4-1.3-.9-.5-.9-.9-.1-1.4.6-.4 1.1-1.2 1.1-1.8 0-.6-.3-.8-.7-.5-.3.4-1.6.1-2.7-.6-1.2-.8-3.3-1.7-4.8-2.1-2.2-.5-2.6-.3-2.2.9zM55.6 216.1c.5.8-.4 1-2.9.7-2-.2-3.3 0-3.1.4.3.4 2.1.8 4 .8 2.4 0 3.4-.5 3.4-1.5 0-.8-.5-1.5-1.1-1.5-.5 0-.7.5-.3 1.1zM61.3 216.6c.4.4 1.3.9 2 1 6.5 1.4 8.7 1.5 8.7.6 0-.5-1-.9-2.2-.9-1.3 0-3.9-.3-5.8-.7-1.9-.5-3.1-.5-2.7 0zM11 218c0 .5.5 1 1 1 .6 0 1-.5 1-1 0-.6-.4-1-1-1-.5 0-1 .4-1 1zM20 220c-.8.5-1 1-.5 1 .6 0 1.7-.5 2.5-1s1.1-1 .5-1c-.5 0-1.7.5-2.5 1zM50.1 220.9c1.4 1.1 2.6 1.5 2.8.9.4-1.2-1.7-2.8-3.8-2.8-.8 0-.3.8 1 1.9zM56.7 219.6c-1.1 1.1.3 2.4 1.8 1.8.8-.4 1.2-1 .9-1.5-.6-1.1-1.8-1.2-2.7-.3zM24.3 221.3c.4 1 .1 1.7-.5 1.7-.9 0-.9.3 0 1.2.8.8.8 1.5.2 2.3-.8 1-.1 1 3.2.1 4.1-1.1 4.1-1.1 1.2-1.6-2-.4-2.8-1.1-2.6-2.2.1-.9-.3-2-.9-2.4-.9-.5-1-.2-.6.9zM64 222.3c0 .4.5.5 1 .2 1.9-1.2 1 1.4-1.4 4-2.1 2.3-2.5 2.4-3.9 1-.9-.8-2.4-1.5-3.4-1.5-1.5 0-1.6.2-.3 1 1.1.8 1.2 1.2.3 1.8-.7.4-.9 1.3-.4 2.1.7 1 1.3 1.1 3 .2 1.9-1.1 2.5-.8 2.2 1.1 0 .5.5.8 1.3.8s2.2.3 3.2.7c1.2.4 1.5.3 1-.5-.4-.7-.2-1.2.3-1.2.6 0 1.1.4 1.1 1 0 .5.7 1 1.5 1 1.3 0 1.3-.3.3-2-.9-1.5-2-1.8-4.3-1.5-2.7.5-2.8.4-1.2-.9.9-.7 2.9-1.1 4.3-.8 1.9.3 2.5.1 2-.7-.4-.6-.1-1.1.8-1.1s1.6-.5 1.6-1c0-.6-.9-1-2-1-1.7 0-1.9-.2-.8-1.4.7-.8 1.6-1.2 2.1-.9.4.2.7 0 .7-.6s-1.9-1-4.5-.9c-2.5.1-4.5.6-4.5 1.1zM20.5 223c.3.5.8 1 1.1 1 .2 0 .4-.5.4-1 0-.6-.5-1-1.1-1-.5 0-.7.4-.4 1zM36 224.5c1.3 1.4 2.5 2.5 2.7 2.5.9 0-3.3-4.9-4.1-5-.5 0 .1 1.1 1.4 2.5zM45.9 223.7c-1.3 1.5-1.2 1.5 1.1.3 3.4-1.7 3.6-2 1.8-2-.9 0-2.2.7-2.9 1.7z"/><path d="M59.2 222.9c-1.1.7-1 1 .3 1.5 2.2.8 2.2.8 2.9-.9.6-1.6-1.1-2-3.2-.6zM0 225c0 .5.5 1 1.1 1 .5 0 .7-.5.4-1-.3-.6-.8-1-1.1-1-.2 0-.4.4-.4 1zM14 225c0 .5.7.7 1.5.4.8-.4 1.5-.8 1.5-1 0-.2-.7-.4-1.5-.4s-1.5.4-1.5 1zM19.6 225.9c-.3.5.1 1.1.9 1.5.8.3 1.5.1 1.5-.4 0-1.3-1.8-2.2-2.4-1.1zM50.4 226.5c.3.9 0 1.5-.7 1.5s-2.2.6-3.2 1.4c-1.8 1.3-1.8 1.4.3 2.5 1.2.7 2.1.8 2 .3-.2-.5.8-1.8 2.1-2.9 1.4-1.1 2.1-2.5 1.7-3.1-1.1-1.7-2.9-1.5-2.2.3zM.5 228c-.3.5.1 1 1 1s1.3-.5 1-1c-.3-.6-.8-1-1-1-.2 0-.7.4-1 1zM34.7 228.7c-.4.3-.7 1.3-.7 2.2.1 1.3.3 1.3 1.1-.2 1.1-1.9.8-3.3-.4-2zM36 233c0 .5 1.4 1.3 3 1.9 1.7.5 3 1.6 3 2.3 0 .8.5.6 1.1-.5.5-.9 1.7-1.7 2.5-1.7s1.2-.5.9-1c-.5-.8-1.1-.7-2 0-1.4 1.2-3.9.5-3.1-.8.2-.4-.9-.7-2.5-.8-1.6-.1-2.9.2-2.9.6zM52.5 236.1c-.4.6-.5 1.2-.2 1.5.7.7 3.7-.7 3.7-1.7 0-1.3-2.7-1.1-3.5.2zM58.1 235.9c-.8.6-.9 1.1-.3 1.5.6.3 1.4.1 1.7-.5.9-1.4.2-2-1.4-1zM71.5 236c.3.5 1.1 1 1.6 1 .6 0 .7-.5.4-1-.3-.6-1.1-1-1.6-1-.6 0-.7.4-.4 1zM47.4 238.9c0 1.3.7 1.8 2.3 1.8 2.8 0 2.9-.5.6-2.3-2.4-1.8-2.9-1.7-2.9.5zM69 237.8c0 .7.9 1.7 2 2.4 1.4.9 2 2.4 2 5 0 2.1.5 3.8 1 3.8.6 0 .8-1.1.6-2.5-.5-2.8 1.1-3.4 2.1-.8.9 2.3 3.3 4.2 5.5 4.3 1.1 0 .5-1.1-2-3.7-2.1-2.1-4-3.7-4.4-3.8-.3 0-1-.4-1.5-.9s-.2-.6.6-.1c.9.5 1.2.3.9-.6-.3-.8-1.1-1.3-1.8-1.1-.7.2-2.1-.5-3.1-1.4-1.1-1-1.9-1.2-1.9-.6zM53.3 240.4c0 .8.6 1.2 1.4.9.7-.3 1.3-.9 1.3-1.4 0-.5-.6-.9-1.3-.9-.8 0-1.4.6-1.4 1.4z"/><path d="M59.8 240.7c-1.5.4-1.6.8-.7 2.4.8 1.5.7 2.4-.2 3.6-1.1 1.3-1 1.5 1.1 1.3 3.7-.3 4.6-.1 3.1.9-.9.6-.6.9 1.3.9 1.4 0 2.4-.6 2.3-1.2-.1-.6.7-1.1 1.9-1 1.6 0 2-.4 1.6-1.8-.2-1-.9-1.8-1.4-1.8-.5 0-.6.5-.3 1 .3.6.1 1-.4 1-2 0-1.1-2 1.2-3 1.5-.6 1.7-.9.5-.9-.9-.1-1.8-.4-2.1-.9-.2-.4-.2-.1-.1.5.2.7-.1 1.3-.6 1.3s-1.6.7-2.4 1.6c-2.1 2-3.4 1.1-2.8-2.1.2-1.4.3-2.4.1-2.4-.2.1-1.2.3-2.1.6zM43.5 242.9c-.3.5-.1 1.2.4 1.5.5.3 1.1-.1 1.5-.9.6-1.6-.9-2.1-1.9-.6zM123.6 242.8c-.3.5.1.9.9.9s1.5-.4 1.5-.9c0-1-1.7-1-2.4 0zM54 243.9c0 .6.4 1.3 1 1.6.6.3.7-.1.4-.9-.7-1.8-1.4-2.1-1.4-.7zM11.3 246.7c-.7.2-1.3 1.1-1.3 2 0 2.1 4.4 1.3 4.8-1 .3-1.7-1-2.1-3.5-1zM54 249c0 .5.5 1 1.1 1 .5 0 .7-.5.4-1-.3-.6-.8-1-1.1-1-.2 0-.4.4-.4 1z"/></svg>